<svg width="61" height="62" viewBox="0 0 61 62" fill="none" xmlns="http://www.w3.org/2000/svg">
<path d="M30.5 2.58333C15.0587 2.58333 2.54167 15.3062 2.54167 31C2.54167 46.6944 15.0587 59.4167 30.5 59.4167C45.9413 59.4167 58.4583 46.6944 58.4583 31C58.4583 15.3062 45.9413 2.58333 30.5 2.58333ZM30.5 54.25C17.8666 54.25 7.625 43.8411 7.625 31C7.625 18.1595 17.8666 7.74999 30.5 7.74999C43.1334 7.74999 53.375 18.1595 53.375 31C53.375 43.8411 43.1334 54.25 30.5 54.25ZM39.922 36.9236C40.9145 37.9324 40.9145 39.5683 39.922 40.5771C39.4263 41.0808 38.775 41.3333 38.125 41.3333C37.475 41.334 36.8243 41.0815 36.328 40.5771L28.703 32.8271C28.2265 32.3427 27.9583 31.6859 27.9583 31V15.5C27.9583 14.0733 29.0964 12.9167 30.5 12.9167C31.9036 12.9167 33.0417 14.0733 33.0417 15.5V29.9305L39.922 36.9236Z" fill="#294D79"/>
</svg>
