<svg width="60" height="62" viewBox="0 0 60 62" fill="none" xmlns="http://www.w3.org/2000/svg">
<path d="M52.0408 17.6375H42.8571V10.6783C42.8571 6.1433 39.2867 2.4538 34.898 2.4538H7.95918C3.57049 2.4538 0 6.1433 0 10.6783V23.3313C0 27.6535 3.24318 31.2076 7.34694 31.5318V44.3625L17.1429 34.2401V38.5151C17.1429 43.0501 20.7133 46.7396 25.102 46.7396H40.2596L52.6531 59.5462V46.7155C56.7568 46.3913 60 42.8372 60 38.515V25.862C60 21.327 56.4295 17.6375 52.0408 17.6375ZM17.1429 25.862V28.8717L11.0204 35.1983V27.7599H7.95918C5.59604 27.7599 3.67347 25.7733 3.67347 23.3313V10.6783C3.67347 8.23637 5.59604 6.24972 7.95918 6.24972H34.898C37.2611 6.24972 39.1837 8.23637 39.1837 10.6783V17.6375H25.102C20.7133 17.6375 17.1429 21.327 17.1429 25.862ZM56.3265 38.515C56.3265 40.9569 54.404 42.9436 52.0408 42.9436H48.9796V50.3819L41.7812 42.9436H25.102C22.7389 42.9436 20.8163 40.9569 20.8163 38.515V25.862C20.8163 23.42 22.7389 21.4334 25.102 21.4334H52.0408C54.404 21.4334 56.3265 23.42 56.3265 25.862V38.515Z" fill="#294D79"/>
<path d="M50.8163 26.4946H26.3265V30.2905H50.8163V26.4946Z" fill="#294D79"/>
<path d="M50.8163 34.0865H26.3265V37.8824H50.8163V34.0865Z" fill="#294D79"/>
</svg>
