<svg width="40" height="40" viewBox="0 0 40 40" fill="none" xmlns="http://www.w3.org/2000/svg">
<path d="M36.0331 6.90729H3.96695C1.77946 6.90729 0 8.68667 0 10.8742V29.1258C0 31.3133 1.77946 33.0927 3.96695 33.0927H36.033C38.2205 33.0927 39.9999 31.3133 39.9999 29.1258V10.8742C40 8.68667 38.2206 6.90729 36.0331 6.90729ZM37.3554 10.8742V29.1258C37.3554 29.3344 37.2967 29.5249 37.2101 29.7005L27.8616 20.3512L37.3528 10.86C37.3528 10.8652 37.3554 10.8691 37.3554 10.8742ZM2.64464 29.1257V10.8742C2.64464 10.8691 2.64731 10.8653 2.64731 10.8601L12.1385 20.3513L2.78932 29.7004C2.7034 29.5248 2.64464 29.3344 2.64464 29.1257ZM20.4081 24.0652C20.1899 24.2833 19.8101 24.2833 19.5919 24.0652L5.07942 9.55192H34.9213L20.4081 24.0652ZM14.0084 22.2212L17.7221 25.935C18.331 26.5438 19.14 26.8789 20 26.8789C20.86 26.8789 21.6691 26.5438 22.278 25.935L25.9919 22.2212L34.2181 30.4481H5.78135L14.0084 22.2212Z" fill="white"/>
</svg>
