<svg width="60" height="60" viewBox="0 0 60 60" fill="none" xmlns="http://www.w3.org/2000/svg">
<g clip-path="url(#clip0)">
<path d="M55.355 53.4863C54.6822 51.8417 53.997 50.197 53.2494 48.5773C52.5891 47.1321 51.7419 46.7084 50.1595 47.0698C48.1536 47.5307 46.185 48.1413 44.1791 48.5524C40.3042 49.3623 36.417 49.437 32.592 48.2285C27.7951 46.7209 25.241 43.2448 23.6711 38.7594H36.6786C37.7003 38.7594 38.5226 37.9371 38.5226 36.9154V32.8163C38.5226 31.7947 37.7003 30.9724 36.6786 30.9724H22.4252C22.4252 29.8261 22.4127 28.7297 22.4252 27.6333H36.6786C37.7003 27.6333 38.5226 26.811 38.5226 25.7893V21.6902C38.5226 20.6686 37.7003 19.8462 36.6786 19.8462H24.2193C24.2193 19.7964 24.2193 19.7466 24.2442 19.7217C25.7394 16.3203 27.9197 13.5917 31.4955 12.1713C35.6569 10.5267 39.9055 10.5641 44.1915 11.4487C46.2224 11.8598 48.2159 12.4828 50.2467 12.9438C51.7294 13.2802 52.5891 12.8441 53.2245 11.4612C53.9596 9.86636 54.6324 8.24666 55.3052 6.6145C55.9406 5.082 55.5669 3.99805 54.1216 3.15082C53.7603 2.93901 53.3865 2.76458 53.0002 2.61507C46.9949 0.272725 40.8026 -0.599424 34.411 0.422236C29.9132 1.14487 25.7144 2.68982 22.0888 5.50562C17.5162 9.04405 14.5509 13.7163 12.8316 19.2108L12.6197 19.8462H6.21568C5.19402 19.8462 4.3717 20.6686 4.3717 21.6902V25.7893C4.3717 26.811 5.19402 27.6333 6.21568 27.6333H11.2617C11.2617 28.7546 11.2617 29.8386 11.2617 30.9724H6.21568C5.19402 30.9724 4.3717 31.7947 4.3717 32.8163V36.9154C4.3717 37.9371 5.19402 38.7594 6.21568 38.7594H12.2958C12.7568 40.2545 13.143 41.7746 13.7286 43.2074C16.8061 50.6331 21.9642 55.9158 29.7263 58.4326C36.1429 60.5133 42.6092 60.451 49.0756 58.6693C50.7576 58.2083 52.4271 57.6103 54.0219 56.8752C55.5669 56.165 55.9656 54.9689 55.355 53.4863Z" fill="#294D79"/>
</g>
<defs>
<clipPath id="clip0">
<rect width="60" height="60" fill="white"/>
</clipPath>
</defs>
</svg>
