<svg width="60" height="60" viewBox="0 0 60 60" fill="none" xmlns="http://www.w3.org/2000/svg">
<g clip-path="url(#clip0)">
<path d="M58.6703 33.5003L57.5422 31.9554C56.6104 30.6801 56.5981 28.9512 57.5055 27.6515L58.609 26.0943C59.8842 24.2795 59.2957 21.7659 57.3338 20.7113L55.6539 19.804C54.2561 19.056 53.4959 17.4988 53.7534 15.9415L54.0722 14.0532C54.44 11.8706 52.8092 9.84745 50.5898 9.76162L48.677 9.67579C47.0952 9.61448 45.7342 8.53544 45.2928 7.01499L44.7655 5.17573C44.1524 3.04218 41.8104 1.93863 39.7627 2.82147L38.0093 3.5817C36.5501 4.20705 34.8703 3.8392 33.8035 2.64981L32.5283 1.22745C31.0446 -0.427888 28.4574 -0.403365 26.9983 1.26423L25.7476 2.71112C24.7053 3.90051 23.0254 4.30514 21.5663 3.70432L19.8006 2.98088C17.7529 2.13482 15.4232 3.27516 14.8346 5.42096L14.3319 7.26022C13.9272 8.8052 12.5907 9.8965 11.0089 9.98233L9.09611 10.0927C6.87674 10.2153 5.28271 12.263 5.68735 14.4333L6.03068 16.3094C6.3127 17.8666 5.57699 19.4361 4.19142 20.1964L2.52382 21.1283C0.586466 22.2073 0.0224259 24.7332 1.33443 26.5234L2.46251 28.0684C3.3944 29.3436 3.40667 31.0725 2.4993 32.3723L1.39574 33.9295C0.12052 35.7442 0.709083 38.2579 2.67096 39.3124L4.35082 40.2198C5.74866 40.9677 6.50889 42.525 6.25139 44.0822L5.92032 45.9583C5.55247 48.1409 7.18328 50.164 9.40266 50.2499L11.3155 50.3357C12.8973 50.397 14.2583 51.4761 14.6997 52.9965L15.227 54.8358C15.8401 56.9693 18.1821 58.0729 20.2298 57.19L21.9832 56.4298C23.4423 55.8045 25.1222 56.1723 26.189 57.3494L27.4642 58.7718C28.9479 60.4271 31.5351 60.4026 32.9942 58.735L34.2449 57.2881C35.2872 56.0987 36.967 55.6941 38.4262 56.2949L40.1919 57.0184C42.2396 57.8644 44.5693 56.7241 45.1579 54.5783L45.6606 52.739C46.0775 51.2186 47.4263 50.1273 49.0081 50.0292L50.9209 49.9188C53.1403 49.7962 54.7343 47.7485 54.3297 45.5782L53.9863 43.7021C53.7043 42.1449 54.44 40.5754 55.8256 39.8151L57.4932 38.8832C59.4183 37.8287 59.9701 35.2906 58.6703 33.5003ZM30.0024 49.3793C19.3101 49.3793 10.6411 40.7102 10.6411 30.018C10.6411 19.3258 19.3101 10.6567 30.0024 10.6567C40.6946 10.6567 49.3637 19.3258 49.3637 30.018C49.3637 40.7102 40.6946 49.3793 30.0024 49.3793Z" fill="#294D79"/>
<path d="M27.5255 30.5333L25.8089 28.8044C24.7911 27.7744 23.1235 27.7744 22.0935 28.7922C21.0636 29.8099 21.0636 31.4775 22.0813 32.5075L23.7979 34.2364L25.7108 36.1492C26.704 37.1547 28.3225 37.1547 29.328 36.1615L31.2408 34.2609L37.9112 27.6273C38.9412 26.6096 38.9412 24.942 37.9235 23.912C36.9057 22.882 35.2381 22.882 34.2081 23.8997L27.5255 30.5333Z" fill="#294D79"/>
</g>
<defs>
<clipPath id="clip0">
<rect width="60" height="60" fill="white"/>
</clipPath>
</defs>
</svg>
