<svg width="110" height="110" viewBox="0 0 110 110" fill="none" xmlns="http://www.w3.org/2000/svg">
<path d="M100.534 7.13193C99.0866 5.68304 97.1091 4.88338 94.9676 4.88338C92.5619 4.88338 90.1385 5.89719 88.2803 7.67272L80.3053 14.1459L79.9949 14.4279C78.2316 16.1885 77.5377 18.662 77.9646 21.1532L59.3731 39.2053L56.253 36.5054C58.4894 27.7592 58.2142 16.1085 50.6716 8.5659C45.1485 3.04279 38.0817 0 30.7749 0C27.8703 0 24.9997 0.48522 22.2415 1.44075C20.9783 1.87853 20.0106 2.90861 19.6541 4.19756C19.2977 5.48651 19.5972 6.86627 20.4538 7.89229L30.474 19.8683L29.9806 27.5708L21.6533 28.5209L9.76539 18.5753C8.73938 17.716 7.35826 17.4164 6.06931 17.7756C4.78036 18.1334 3.75028 19.1011 3.3125 20.3643C0.0650465 29.7421 2.92622 39.8423 11.1628 48.0734C15.6002 52.5136 21.9894 54.8597 29.6364 54.8597C30.1961 54.8597 30.76 54.8313 31.3238 54.8042C31.0405 55.0508 30.7559 55.2948 30.4876 55.5632L7.6456 78.4038C1.30385 84.7455 1.30385 95.0625 7.6456 101.404L11.4772 105.236C14.5485 108.309 18.6335 110 22.9775 110C27.3214 110 31.4065 108.309 34.4777 105.236L57.3183 82.3939C58.5843 81.1294 59.5804 79.7076 60.3313 78.1882L80.6198 101.631C80.6848 101.705 80.7526 101.776 80.8204 101.846C83.0947 104.119 86.5075 105.371 90.4353 105.371C95.2075 105.371 100.052 103.494 103.075 100.472C108.391 95.1561 110.066 83.8455 104.447 78.2221C104.375 78.153 104.306 78.0852 104.232 78.0243L74.6914 52.4648L91.7337 34.9142C92.2027 34.9941 92.6717 35.0335 93.1447 35.0335C95.1859 35.0335 97.0698 34.2704 98.4523 32.8893L105.207 24.6039C106.754 22.9883 107.722 20.9512 107.947 18.8423C108.208 16.3728 107.407 14.0063 105.75 12.3501L100.534 7.13193ZM51.5689 76.6445L28.7283 99.4864C27.1927 101.022 25.1501 101.868 22.9775 101.868C20.8048 101.868 18.7637 101.022 17.2267 99.4864L13.3951 95.6548C10.2249 92.4833 10.2249 87.3248 13.3951 84.1559L36.237 61.3126C37.7726 59.777 39.8152 58.9312 41.9865 58.9312C42.6248 58.9312 43.2497 59.0153 43.8555 59.1549L53.9367 70.8042C53.9611 72.9145 53.1763 75.037 51.5689 76.6445ZM97.3233 94.7223C95.8175 96.2281 93.0485 97.2393 90.4326 97.2393C88.7913 97.2393 87.3885 96.8421 86.6471 96.1699L43.5356 46.3575C42.4554 45.1092 40.726 44.6376 39.1646 45.1648C36.1286 46.1867 32.8337 46.7262 29.635 46.7262C24.2705 46.7262 19.7517 45.1621 16.9122 42.3212C14.3425 39.7515 10.7331 35.2056 10.1937 29.5375L17.7702 35.8765C18.624 36.5921 19.7314 36.9242 20.8414 36.7981L34.2799 35.2639C36.2357 35.0402 37.7509 33.449 37.8756 31.4838L38.6902 18.765C38.7566 17.7227 38.4205 16.6967 37.7509 15.8971L31.2601 8.13896C36.2248 8.2745 41.058 10.4553 44.9181 14.3154C50.2284 19.627 50.1132 29.5754 47.7576 36.5718C47.2304 38.1359 47.702 39.864 48.9503 40.9442L98.7694 84.0556C100.576 86.0331 100.149 91.895 97.3233 94.7223ZM99.2953 19.0225L92.9156 26.8457C92.8492 26.8199 92.7747 26.7847 92.6933 26.7359L89.9325 25.0959L68.5353 47.1341L65.544 44.5468L87.7856 22.949L86.1469 20.1909C86.0995 20.1068 86.0615 20.0323 86.0385 19.9672L93.5486 13.8694L93.8603 13.5875C94.2656 13.185 94.6708 13.0454 94.9229 13.0223L99.8646 17.964C99.8483 18.1673 99.7168 18.5997 99.2953 19.0225Z" fill="#294D79"/>
</svg>
