<svg width="60" height="56" viewBox="0 0 60 56" fill="none" xmlns="http://www.w3.org/2000/svg">
<path d="M26.7692 16.2417C26.7692 20.923 34.6813 29.2307 35.011 29.5604L35.6044 30.1538L36.1978 29.5604C36.5275 29.2307 44.4396 20.923 44.4396 16.2417C44.4396 11.3626 40.4835 7.40656 35.6044 7.40656C30.7253 7.40656 26.7692 11.3626 26.7692 16.2417ZM38.5055 16.0439C38.5055 17.6263 37.1868 18.945 35.6044 18.945C34.022 18.945 32.7033 17.6263 32.7033 16.0439C32.7033 14.4615 34.022 13.1428 35.6044 13.1428C37.1868 13.1428 38.5055 14.4615 38.5055 16.0439Z" fill="#FFFDFD"/>
<path d="M43.0549 24.2197C42.4615 24.2197 41.9341 24.7472 41.9341 25.3406C41.9341 25.934 42.4615 26.4615 43.0549 26.4615H43.5165L44.7033 32.7252L41.5385 35.0329L21.2967 26.4615H27.4945C28.0879 26.4615 28.6154 25.934 28.6154 25.3406C28.6154 24.7472 28.0879 24.2197 27.4945 24.2197H13.7143L11.0769 41.8241H43.5165C45.956 41.8241 47.9341 39.8461 47.9341 37.4065L45.4286 24.2197H43.0549ZM39.4286 36.5494L35.1429 39.6483H17.0769L24.989 30.4835L39.4286 36.5494ZM15.6264 26.4615L22.8791 29.4945L14.1758 39.6483H13.6483L15.6264 26.4615ZM43.5165 39.6483H38.967L45.2308 35.0988L45.6923 37.5384C45.6264 38.7252 44.6374 39.6483 43.5165 39.6483Z" fill="#FFFDFD"/>
</svg>
