<svg width="110" height="110" viewBox="0 0 110 110" fill="none" xmlns="http://www.w3.org/2000/svg">
<g clip-path="url(#clip0)">
<path d="M105.286 92.7143H100.571V55H105.286C106.881 55 108.369 54.1928 109.238 52.8548C110.108 51.5165 110.241 49.8296 109.594 48.3712L97.0221 20.0853C96.2657 18.3829 94.5772 17.2857 92.7143 17.2857H78.5714V12.5714C78.5714 9.9679 76.4605 7.85706 73.857 7.85706C71.2536 7.85706 69.1427 9.9679 69.1427 12.5714V17.2857H17.2857C15.4226 17.2857 13.7343 18.3829 12.9779 20.0853L0.406484 48.3712C-0.241914 49.8296 -0.108066 51.5165 0.761621 52.8548C1.63109 54.193 3.11846 55 4.71432 55H9.42863V92.7143H4.71432C2.11084 92.7143 0 94.8252 0 97.4286C0 100.032 2.11084 102.143 4.71432 102.143H14.1429H36.143H73.8573H95.8573H105.286C107.889 102.143 110 100.032 110 97.4286C110 94.8252 107.889 92.7143 105.286 92.7143ZM31.4286 92.7143H18.8573V55H31.4286V92.7143ZM69.143 92.7143H59.7143V87.9981C59.7143 85.3946 57.6035 83.2838 55 83.2838C52.3965 83.2838 50.2857 85.3946 50.2857 87.9981V92.7143H40.8571V52.643L55 42.0357L69.143 52.6427V92.7143ZM91.143 92.7143H78.5716V55H91.143V92.7143ZM95.8573 45.5714H75.4286L57.8286 32.3714C56.1526 31.1145 53.8476 31.1139 52.1716 32.3714L34.5716 45.5714H14.1429H11.9687L20.3496 26.7143H89.6509L98.0319 45.5714H95.8573Z" fill="#294D79"/>
</g>
<defs>
<clipPath id="clip0">
<rect width="110" height="110" fill="white"/>
</clipPath>
</defs>
</svg>
