<svg width="41" height="40" viewBox="0 0 41 40" fill="none" xmlns="http://www.w3.org/2000/svg">
<path d="M11.1376 3.75C10.4838 3.75 9.83757 3.9875 9.30007 4.4125L9.22507 4.45375L9.18507 4.49125L5.27881 8.51625L5.31631 8.55375C4.11256 9.66875 3.73756 11.3337 4.26131 12.7737C4.26381 12.78 4.25881 12.8037 4.26131 12.8112C5.32006 15.8462 8.03257 21.6988 13.3238 26.9913C18.6363 32.3038 24.5701 34.9038 27.5038 36.0538H27.5413C29.0626 36.56 30.7063 36.1988 31.8788 35.1938L31.9163 35.1562L31.9563 35.1163L35.8263 31.25C36.8638 30.2125 36.8638 28.42 35.8263 27.3825L30.7488 22.305L30.7088 22.2263C29.6713 21.1888 27.8401 21.1888 26.8026 22.2263L26.7651 22.2662L24.3026 24.7288C23.3988 24.295 21.2451 23.1787 19.1863 21.2125C17.1413 19.2587 16.0938 17.0125 15.7113 16.1325L18.2088 13.6325C19.2613 12.58 19.2776 10.8375 18.1713 9.805L18.2088 9.765L18.0926 9.64875L13.0926 4.49125L13.0513 4.45375L12.9738 4.4125C12.4388 3.9875 11.7926 3.75 11.1363 3.75H11.1376ZM11.1376 6.25C11.2301 6.25 11.3213 6.295 11.4126 6.3675L16.4126 11.4838L16.4901 11.5625L16.5276 11.6C16.5188 11.5937 16.6026 11.7212 16.4501 11.875L13.3251 15L12.7376 15.5475L13.0126 16.3275C13.0126 16.3275 14.4501 20.1687 17.4663 23.0475L17.7376 23.2812C20.6426 25.9337 24.0676 27.3813 24.0676 27.3813L24.8488 27.7338L25.4363 27.1487L28.5613 24.0237C28.7738 23.8112 28.7363 23.8112 28.9488 24.0237L34.0676 29.14C34.2801 29.3525 34.2801 29.2775 34.0676 29.49L30.2388 33.3188C29.6638 33.8138 29.0551 33.9138 28.3263 33.6713C25.4913 32.5588 19.9888 30.1375 15.0826 25.2338C10.1388 20.2875 7.55506 14.675 6.60756 11.9537C6.41631 11.445 6.55381 10.6913 6.99756 10.3125L7.03506 10.275L7.07506 10.2338L10.8651 6.3675C10.9551 6.295 11.0451 6.25 11.1363 6.25H11.1376Z" fill="white"/>
</svg>
