<svg width="110" height="119" viewBox="0 0 110 119" fill="none" xmlns="http://www.w3.org/2000/svg">
<path d="M108.154 18.9768C107.556 18.5754 106.879 18.3641 106.189 18.3641C105.5 18.3641 104.822 18.5754 104.225 18.9768L70.7143 38.3194V22.8636C70.7123 22.0841 70.5391 21.3182 70.2112 20.6385C69.8833 19.9588 69.4116 19.388 68.8408 18.9803C68.2701 18.5725 67.6192 18.3413 66.9501 18.3087C66.2811 18.2761 65.6159 18.4431 65.0179 18.7939L31.4286 38.3194V4.57272C31.4286 3.35996 31.0147 2.19687 30.2779 1.33932C29.5412 0.481767 28.5419 0 27.5 0H3.92857C2.88665 0 1.8874 0.481767 1.15065 1.33932C0.413902 2.19687 0 3.35996 0 4.57272V118.891H110V22.8636C110.001 22.0865 109.832 21.3218 109.509 20.6417C109.186 19.9617 108.72 19.3886 108.154 18.9768V18.9768ZM78.5714 109.745H62.8571V77.7362H78.5714V109.745ZM102.143 109.745H86.4286V73.1635C86.4286 71.9507 86.0147 70.7876 85.2779 69.9301C84.5412 69.0725 83.5419 68.5907 82.5 68.5907H58.9286C57.8866 68.5907 56.8874 69.0725 56.1506 69.9301C55.4139 70.7876 55 71.9507 55 73.1635V109.745H7.85714V9.14543H23.5714V53.135L62.8571 30.2714V53.135L102.143 30.2714V109.745Z" fill="#294D79"/>
</svg>
